<svg xmlns="http://www.w3.org/2000/svg" width="50" height="50" viewBox="0 0 50 50">
  <defs>
    <style>.f,.g{fill:#7777eb;}.f{opacity:0.1;}</style>
  </defs>
  <g id="icon" transform="translate(-533 -3544)">
    <circle class="f" id="bg" cx="25" cy="25" r="25" transform="translate(533 3544)" opacity="0.1"/>
    <path class="g" id="amazonaws" d="M6.763,10.036a2.4,2.4,0,0,0,.088.71,4.282,4.282,0,0,0,.256.576.342.342,0,0,1,.056.183.317.317,0,0,1-.152.24l-.5.335a.383.383,0,0,1-.208.072.364.364,0,0,1-.239-.112,2.47,2.47,0,0,1-.287-.375q-.134-.23-.248-.471a2.949,2.949,0,0,1-2.347,1.1,2.187,2.187,0,0,1-1.6-.574,2.052,2.052,0,0,1-.59-1.533,2.053,2.053,0,0,1,.726-1.644,2.9,2.9,0,0,1,1.955-.623,6.293,6.293,0,0,1,.846.064c.3.04.6.1.918.176V7.578A1.764,1.764,0,0,0,5.063,6.3a1.832,1.832,0,0,0-1.3-.367,3.623,3.623,0,0,0-.863.1,6.347,6.347,0,0,0-.862.272,2.287,2.287,0,0,1-.28.1.488.488,0,0,1-.127.023c-.112,0-.168-.08-.168-.247V5.8a.506.506,0,0,1,.056-.28.6.6,0,0,1,.224-.167,4.577,4.577,0,0,1,1-.36A4.84,4.84,0,0,1,3.994,4.84a2.916,2.916,0,0,1,2.091.647A2.638,2.638,0,0,1,6.747,7.45v2.586ZM3.523,11.25a2.586,2.586,0,0,0,.822-.144A1.781,1.781,0,0,0,5.1,10.6a1.27,1.27,0,0,0,.272-.512,2.9,2.9,0,0,0,.08-.694V9.055a6.66,6.66,0,0,0-.735-.136,6.02,6.02,0,0,0-.75-.048,1.84,1.84,0,0,0-1.19.32,1.111,1.111,0,0,0-.39.917,1.112,1.112,0,0,0,.3.846,1.1,1.1,0,0,0,.838.3Zm6.41.862a.447.447,0,0,1-.3-.08.653.653,0,0,1-.168-.311L7.586,5.55a1.4,1.4,0,0,1-.072-.32.175.175,0,0,1,.191-.2h.783a.443.443,0,0,1,.31.08.637.637,0,0,1,.16.312L10.3,10.706l1.245-5.284A.568.568,0,0,1,11.7,5.11a.549.549,0,0,1,.32-.08h.638a.487.487,0,0,1,.32.08.539.539,0,0,1,.151.312l1.261,5.348,1.381-5.348a.686.686,0,0,1,.16-.312.52.52,0,0,1,.311-.08h.743a.179.179,0,0,1,.2.2.807.807,0,0,1-.017.128,1.137,1.137,0,0,1-.056.2l-1.923,6.17a.609.609,0,0,1-.168.311.51.51,0,0,1-.3.08h-.687a.485.485,0,0,1-.32-.08.567.567,0,0,1-.15-.32L12.319,6.571l-1.23,5.14a.633.633,0,0,1-.15.32.5.5,0,0,1-.32.08Zm10.256.215a5.322,5.322,0,0,1-1.229-.143,3.635,3.635,0,0,1-.918-.32.457.457,0,0,1-.295-.447V11.01c0-.167.064-.247.183-.247a.453.453,0,0,1,.144.024c.048.016.12.048.2.08a4.311,4.311,0,0,0,.878.279,4.777,4.777,0,0,0,.95.1,2.149,2.149,0,0,0,1.165-.264.86.86,0,0,0,.415-.758.777.777,0,0,0-.215-.559,2.023,2.023,0,0,0-.807-.415L19.5,8.886a2.428,2.428,0,0,1-1.277-.813,1.9,1.9,0,0,1-.4-1.158,1.786,1.786,0,0,1,.216-.886,2.047,2.047,0,0,1,.575-.654,2.508,2.508,0,0,1,.83-.415,3.478,3.478,0,0,1,1.006-.136,4.011,4.011,0,0,1,.535.032c.183.024.35.056.518.088s.312.08.455.127a1.746,1.746,0,0,1,.336.144.69.69,0,0,1,.24.2.43.43,0,0,1,.071.263v.375c0,.168-.064.256-.184.256a.83.83,0,0,1-.3-.1A3.652,3.652,0,0,0,20.589,5.9a2.058,2.058,0,0,0-1.062.223.77.77,0,0,0-.375.71.752.752,0,0,0,.24.567,2.371,2.371,0,0,0,.877.44L21.4,8.2a2.433,2.433,0,0,1,1.237.767,1.807,1.807,0,0,1,.367,1.117,2.061,2.061,0,0,1-.207.926,2.157,2.157,0,0,1-.583.7,2.576,2.576,0,0,1-.886.447,3.823,3.823,0,0,1-1.142.167Zm1.509,3.88a17.215,17.215,0,0,1-9.722,2.969A17.59,17.59,0,0,1,.106,14.65c-.247-.223-.024-.527.272-.351a23.942,23.942,0,0,0,11.877,3.153,23.708,23.708,0,0,0,9.06-1.852C21.754,15.4,22.129,15.887,21.7,16.207Zm1.094-1.246c-.336-.43-2.22-.207-3.074-.1-.255.032-.3-.192-.063-.36,1.5-1.053,3.967-.75,4.254-.4s-.08,2.826-1.485,4.007c-.215.184-.423.088-.327-.151.32-.79,1.03-2.57.695-2.994Z" transform="translate(545.999 3557.176)" fill="#7777eb"/>
  </g>
</svg>
