<svg xmlns="http://www.w3.org/2000/svg" width="19.039" height="19.039" viewBox="0 0 19.039 19.039"><defs><style>.a{fill:#fff;}</style></defs><path class="a" d="M9.52,19.039a9.52,9.52,0,1,1,9.52-9.52A9.532,9.532,0,0,1,9.52,19.039Zm8.028-8.217a11.925,11.925,0,0,0-5.064-.347,35.165,35.165,0,0,1,1.58,5.8,8.155,8.155,0,0,0,3.487-5.45ZM12.7,17.016a33.828,33.828,0,0,0-1.737-6.164l-.052.016a11.108,11.108,0,0,0-6.378,5.077,8.11,8.11,0,0,0,8.163,1.073ZM3.479,14.969A12.894,12.894,0,0,1,10.088,9.6c.107-.036.214-.067.321-.1-.206-.464-.428-.926-.66-1.38A29.971,29.971,0,0,1,1.393,9.282l0,.248a8.106,8.106,0,0,0,2.09,5.438Zm-1.92-7.1a30.193,30.193,0,0,0,7.518-.99,51.939,51.939,0,0,0-3.015-4.7,8.151,8.151,0,0,0-4.5,5.688ZM7.616,1.628a43.387,43.387,0,0,1,3.032,4.76A9.174,9.174,0,0,0,14.91,3.451,8.113,8.113,0,0,0,7.616,1.625Zm8.2,2.763a10.871,10.871,0,0,1-4.541,3.2c.19.389.373.781.539,1.179.063.143.119.286.175.42a19.037,19.037,0,0,1,5.664.262A8.047,8.047,0,0,0,15.819,4.4Z"/></svg>