<svg xmlns="http://www.w3.org/2000/svg" width="50" height="50" viewBox="0 0 74.385 33.423">
  <g id="Go_Logo_Blue" transform="translate(0 0.034)">
    <g id="Group_190" data-name="Group 190" transform="translate(5.469 8.474)">
      <g id="Group_189" data-name="Group 189">
        <g id="Group_188" data-name="Group 188">
          <path id="Path_171" data-name="Path 171" d="M15.245,21.112c-.145,0-.181-.087-.109-.218l.761-1.176a.488.488,0,0,1,.4-.218H29.225c.145,0,.181.131.109.261l-.616,1.132a.544.544,0,0,1-.362.261Z" transform="translate(-15.1 -19.5)" fill="#fff"/>
        </g>
      </g>
    </g>
    <g id="Group_193" data-name="Group 193" transform="translate(0 12.481)">
      <g id="Group_192" data-name="Group 192" transform="translate(0)">
        <g id="Group_191" data-name="Group 191">
          <path id="Path_172" data-name="Path 172" d="M.145,30.312c-.145,0-.181-.087-.109-.218L.8,28.918a.488.488,0,0,1,.4-.218H17.71a.193.193,0,0,1,.181.261l-.29,1.045a.323.323,0,0,1-.326.261Z" transform="translate(0 -28.7)" fill="#fff"/>
        </g>
      </g>
    </g>
    <g id="Group_196" data-name="Group 196" transform="translate(8.764 16.489)">
      <g id="Group_195" data-name="Group 195">
        <g id="Group_194" data-name="Group 194">
          <path id="Path_173" data-name="Path 173" d="M24.345,39.512c-.145,0-.181-.131-.109-.261l.507-1.089a.476.476,0,0,1,.362-.261h7.243c.145,0,.217.131.217.3l-.072,1.045a.3.3,0,0,1-.254.3Z" transform="translate(-24.2 -37.9)" fill="#fff"/>
        </g>
      </g>
    </g>
    <g id="Group_200" data-name="Group 200" transform="translate(19.744 -0.034)">
      <g id="CXHf1q_3_">
        <g id="Group_199" data-name="Group 199">
          <g id="Group_197" data-name="Group 197">
            <path id="Path_174" data-name="Path 174" d="M81.274,9.3c-2.282.7-3.839,1.22-6.084,1.917-.543.174-.579.218-1.05-.436a5.145,5.145,0,0,0-1.7-1.655c-2.282-1.35-4.491-.958-6.555.653a9.855,9.855,0,0,0-3.694,8.276c.036,3.485,2.028,6.359,4.889,6.838,2.463.392,4.527-.653,6.157-2.875.326-.479.616-1,.978-1.612h-6.99c-.761,0-.942-.566-.688-1.307.471-1.35,1.34-3.615,1.847-4.748a1,1,0,0,1,.905-.7H82.469c-.072,1.176-.072,2.352-.217,3.528a20.735,20.735,0,0,1-2.97,8.537c-2.608,4.138-6.012,6.708-10.322,7.4a11.237,11.237,0,0,1-9.742-2.875,14.48,14.48,0,0,1-4.6-9.67A19.607,19.607,0,0,1,57.7,7.821,15.976,15.976,0,0,1,67.837.286a10.776,10.776,0,0,1,9.6,2.134,13.413,13.413,0,0,1,4.2,6.142C81.853,8.953,81.708,9.171,81.274,9.3Z" transform="translate(-54.515 0.034)" fill="#fff"/>
          </g>
          <g id="Group_198" data-name="Group 198" transform="translate(25.816 0.403)">
            <path id="Path_175" data-name="Path 175" d="M138.727,33.911a12.288,12.288,0,0,1-8.837-3.833,14.549,14.549,0,0,1-3.911-8.406,19.136,19.136,0,0,1,2.934-13.154,14.985,14.985,0,0,1,10.141-7.274,11.586,11.586,0,0,1,10.322,2.221,14.07,14.07,0,0,1,5.107,9.713,18.959,18.959,0,0,1-4.165,14.766,15.959,15.959,0,0,1-8.692,5.575C140.647,33.737,139.669,33.781,138.727,33.911Zm8.62-17.6c-.036-.566-.036-1-.109-1.437-.652-4.312-3.948-6.751-7.388-5.793-3.368.915-5.541,3.485-6.338,7.579-.652,3.4.724,6.838,3.332,8.232a5.654,5.654,0,0,0,5.9-.261A9.754,9.754,0,0,0,147.347,16.314Z" transform="translate(-125.796 -0.892)" fill="#fff"/>
          </g>
        </g>
      </g>
    </g>
  </g>
</svg>
