<svg xmlns="http://www.w3.org/2000/svg" width="50" height="50" viewBox="0 0 50 50"><defs><style>.f{fill:#7777eb;opacity:0.1;}.b{fill:#fff;}</style></defs><g transform="translate(-986 -3767)"><circle class="f" cx="25" cy="25" r="25" transform="translate(986 3767)"/><path class="b" d="M10.254,23.129s-1.143.665.814.89a17.044,17.044,0,0,0,6.192-.263,10.855,10.855,0,0,0,1.646.805c-5.856,2.509-13.25-.147-8.652-1.432m-.717-3.274s-1.281.948.675,1.151a24.172,24.172,0,0,0,7.992-.384,3.552,3.552,0,0,0,1.23.75c-7.077,2.07-14.963.162-9.9-1.518M15.569,14.3c1.443,1.661-.379,3.157-.379,3.157s3.662-1.892,1.98-4.259c-1.571-2.208-2.776-3.3,3.747-7.088,0,0-10.238,2.556-5.349,8.191m7.744,11.252s.846.7-.931,1.235C19,27.811,8.315,28.118,5.348,26.827c-1.067-.465.935-1.109,1.563-1.244a4.081,4.081,0,0,1,1.032-.116c-1.188-.836-7.671,1.641-3.294,2.352,11.938,1.935,21.76-.872,18.664-2.268M10.8,16.462s-5.436,1.291-1.924,1.76a40.877,40.877,0,0,0,7.19-.077c2.251-.189,4.509-.594,4.509-.594a9.479,9.479,0,0,0-1.368.731c-5.519,1.452-16.183.776-13.112-.708A10.288,10.288,0,0,1,10.8,16.462m9.75,5.451c5.611-2.916,3.017-5.719,1.206-5.34a4.294,4.294,0,0,0-.642.172,1.023,1.023,0,0,1,.48-.37c3.583-1.26,6.338,3.715-1.156,5.685a.487.487,0,0,0,.112-.147M17.171,0s3.108,3.108-2.947,7.888c-4.855,3.834-1.107,6.021,0,8.519C11.388,13.849,9.309,11.6,10.7,9.5c2.049-3.077,7.722-4.567,6.468-9.5M11.355,29.813c5.386.345,13.657-.191,13.852-2.739,0,0-.376.966-4.451,1.733a44.284,44.284,0,0,1-13.629.209s.689.569,4.228.8" transform="translate(996.852 3777)"/></g></svg>