<svg xmlns="http://www.w3.org/2000/svg" width="50" height="50" viewBox="0 0 50 50"><defs><style>.f{fill:#7777eb;opacity:0.1;}.b{fill:#fff;}</style></defs><g transform="translate(-648 -3716)"><circle class="f" cx="25" cy="25" r="25" transform="translate(648 3716)"/><path class="b" d="M17.18,9.518c-1.263-5.56-4.242-7.387-4.562-8.086A8.985,8.985,0,0,1,11.885,0c0,.019,0,.031-.005.049V.062h0c0,.015,0,.025,0,.039V.116h0c0,.01,0,.018,0,.026V.168h0a.19.19,0,0,1,0,.025V.214h0a.071.071,0,0,1,0,.021v.02h0c0,.01,0,.022,0,.032v0l-.009.05V.347h0a.053.053,0,0,0,0,.012V.376h0V.4h-.005V.416H11.83V.437h0V.456h0V.473h-.006V.487h0V.5h0V.519H11.8V.532h0V.547h0a.006.006,0,0,0,0,0v.01h0a.013.013,0,0,0,0,.006V.573h0a.044.044,0,0,0,0,.01L11.777.6v0l-.005.007V.621h0V.629h-.005V.637h0v.01h-.006V.661h0v0h0V.673h0V.684h0V.692h-.006V.7h0V.711h-.005V.719h0v.01h-.005V.737h0V.743h0V.751H11.7V.76h0V.766h-.005V.774h0V.785h-.005v0h0V.8h-.006v0h0v.01h0v0h0V.823h-.005V.829h0l0,0v0h0s0,0,0,0h0a.016.016,0,0,1,0,.007v0h0A.188.188,0,0,0,11.63.87h0a.045.045,0,0,0-.009.01v0h0s0,0,0,0v0h0l0,0h0l0,0v0h0l0,0v0h0s0,0,0,0v0h0l0,0V.92h0v0h0V.93h0V.938h-.005V.93h-.005v0h0V.94h-.005V.948h-.005v0h0V.958h0v0h0V.97H11.54v0h0V.98h-.005v0h0v0h-.005V1h0V1h-.006v0h0v0h0v0H11.5v.01h0v0h-.005v0h0v.006h-.005v0h-.005v0h0v0h0v.01h0v0H11.46v0h0v0h-.005v.006h0v0h-.005V1.09h0v0h-.006V1.1h0v0h0v0h-.005v0h0v.006h-.005v0h0v0h0l0,0,0,0v.006h0v0h0v0h0v0h0l0,0v0h0l0,0v0h0a.1.1,0,0,1-.014.016l-.012.01a.366.366,0,0,0-.039.032.211.211,0,0,0-.022.017h0l-.049.039h0l-.074.062h0c-.057.047-.117.1-.186.159h0c-.169.148-.37.338-.6.568l-.015.015,0,0a13.768,13.768,0,0,0-3.729,9.077,10.366,10.366,0,0,0,.006,1.144v.009a10.9,10.9,0,0,0,1.428,4.756h0a12.526,12.526,0,0,0,.926,1.405h0a12.8,12.8,0,0,0,2.514,2.526,8.356,8.356,0,0,1,.4,2.779l.644.215a11.994,11.994,0,0,1,.053-2.522,1.558,1.558,0,0,1,.349-.662,8.381,8.381,0,0,0,.8-.645c.018-.019.028-.036.044-.054a11.423,11.423,0,0,0,3.388-10.6Z" transform="translate(660.383 3729)"/></g></svg>