<svg xmlns="http://www.w3.org/2000/svg" width="50" height="50" viewBox="0 0 50 50"><defs><style>.f{fill:#7777eb;opacity:0.1;}.b{fill:#fff;}</style></defs><g transform="translate(-458 -3784)"><circle class="f" cx="25" cy="25" r="25" transform="translate(458 3784)"/><path class="b" d="M17.813,22.5c-.089.047-.084.066,0,.021a.228.228,0,0,0,.07-.047c0-.016,0-.014-.075.026Zm.178-.094c-.042.033-.042.035.009.009a.144.144,0,0,0,.052-.035C18.052,22.363,18.04,22.368,17.991,22.408Zm.117-.071c-.042.033-.042.035.009.009a.144.144,0,0,0,.052-.035C18.169,22.292,18.157,22.3,18.108,22.337Zm.117-.07c-.042.033-.042.035.009.009a.144.144,0,0,0,.052-.035C18.286,22.222,18.274,22.227,18.225,22.267Zm.162-.1c-.082.052-.108.087-.035.047.052-.03.136-.094.122-.1a.466.466,0,0,0-.087.049ZM11.214.006c-.052,0-.216.021-.364.033A12.026,12.026,0,0,0,2.227,5.012,11.876,11.876,0,0,0,.109,10.255,9.2,9.2,0,0,0,0,12a9.207,9.207,0,0,0,.108,1.748,12.049,12.049,0,0,0,8.208,9.695,12.679,12.679,0,0,0,2.533.525,22.037,22.037,0,0,0,2.3,0,12.114,12.114,0,0,0,4.323-1.264c.206-.106.246-.134.218-.157q-.986-1.3-1.954-2.62l-1.919-2.592-2.4-3.558q-1.2-1.786-2.421-3.556c-.009,0-.019,1.579-.023,3.509a27.167,27.167,0,0,1-.052,3.6.424.424,0,0,1-.206.213c-.075.038-.141.045-.495.045H7.81L7.7,17.519a.442.442,0,0,1-.157-.171L7.5,17.242l.005-4.7.007-4.7.073-.091A.637.637,0,0,1,7.755,7.6c.1-.047.134-.052.54-.052.479,0,.558.019.683.155q1.46,2.172,2.895,4.361c1.558,2.362,3.687,5.587,4.734,7.171l1.9,2.878.1-.063a12.34,12.34,0,0,0,2.465-2.163,11.94,11.94,0,0,0,2.824-6.134A9.2,9.2,0,0,0,24,12a9.206,9.206,0,0,0-.108-1.748A12.049,12.049,0,0,0,15.684.562a12.552,12.552,0,0,0-2.5-.523c-.225-.023-1.776-.049-1.97-.03Zm4.912,7.258a.471.471,0,0,1,.237.277c.019.061.023,1.365.019,4.3l-.007,4.218-.744-1.14-.746-1.14V10.717c0-1.982.009-3.1.023-3.15a.484.484,0,0,1,.232-.3c.1-.049.131-.054.5-.054.347,0,.408.005.486.047Z" transform="translate(470.998 3796.998)"/></g></svg>