<svg xmlns="http://www.w3.org/2000/svg" width="50" height="50" viewBox="0 0 50 50"><defs><style>.f{fill:#7777eb;opacity:0.1;}.b{fill:#fff;}</style></defs><g transform="translate(-431 -3614)"><circle class="f" cx="25" cy="25" r="25" transform="translate(431 3614)"/><path class="b" d="M9.158,11.592H7.925l-.673,3.459H8.347a2.649,2.649,0,0,0,1.623-.41,2.179,2.179,0,0,0,.719-1.37,1.5,1.5,0,0,0-.162-1.3A1.844,1.844,0,0,0,9.158,11.592Zm6.519-5.9C7.019,5.688,0,9.38,0,13.934s7.019,8.247,15.677,8.247,15.677-3.693,15.677-8.247S24.334,5.688,15.677,5.688Zm-4.259,9.734a3.171,3.171,0,0,1-1.2.72,5.582,5.582,0,0,1-1.679.214H7l-.427,2.2h-1.8l1.607-8.264H9.84a2.873,2.873,0,0,1,2.278.82,2.569,2.569,0,0,1,.431,2.289,3.6,3.6,0,0,1-1.131,2.025Zm5.257.934.709-3.657a.988.988,0,0,0-.089-.85,1.254,1.254,0,0,0-.9-.227H14.971l-.92,4.736H12.264l1.607-8.266h1.786l-.427,2.2h1.591a3.1,3.1,0,0,1,2.072.524,1.735,1.735,0,0,1,.344,1.7l-.747,3.846ZM26.6,13.4a3.634,3.634,0,0,1-.4,1.107,3.731,3.731,0,0,1-.733.918,3.188,3.188,0,0,1-1.2.72,5.585,5.585,0,0,1-1.68.214H21.049l-.427,2.2h-1.8l1.607-8.264h3.461a2.873,2.873,0,0,1,2.278.82A2.565,2.565,0,0,1,26.6,13.4Zm-3.39-1.805H21.978L21.3,15.051H22.4a2.644,2.644,0,0,0,1.623-.41,2.186,2.186,0,0,0,.72-1.37,1.5,1.5,0,0,0-.163-1.3,1.844,1.844,0,0,0-1.368-.379Z" transform="translate(440 3625.313)"/></g></svg>