<svg xmlns="http://www.w3.org/2000/svg" width="140" height="140" viewBox="0 0 140 140"><defs><style>.a{fill:#f1f1fd;}.b{fill:#7777eb;}.c{fill:none;stroke:#7777eb;stroke-width:1.6px;}</style></defs><g transform="translate(-613 -488)"><rect class="a" width="140" height="140" rx="5" transform="translate(613 488)"/><g transform="translate(653 528)"><path class="b" d="M12.1,232.471a.879.879,0,0,0-.879-.879,9.456,9.456,0,0,1-3.915-18.066.879.879,0,0,0-.728-1.6A11.214,11.214,0,0,0,11.22,233.35.879.879,0,0,0,12.1,232.471Z" transform="translate(0 -187.02)"/><path class="b" d="M80.538,27.09a14.866,14.866,0,0,1,27.756-4.321.879.879,0,0,0,1.552-.825,16.717,16.717,0,0,0-1.7-2.592V7.636L110.269,5.1a2.637,2.637,0,1,0-1.347-1.129l-2.331,2.778a.879.879,0,0,0-.206.565V17.471a16.578,16.578,0,0,0-5.291-3.264V8.073a2.637,2.637,0,1,0-1.758,0v5.575a16.763,16.763,0,0,0-6.324-.391V5.118a2.637,2.637,0,1,0-1.758,0V13.58a16.592,16.592,0,0,0-6.324,3.049V8.073a2.637,2.637,0,1,0-1.758,0v10.14a16.516,16.516,0,0,0-4.078,7.266,11.118,11.118,0,0,0-1.269-.653V7.316a.879.879,0,0,0-.206-.565L75.288,3.973A2.635,2.635,0,1,0,73.941,5.1l2.126,2.534V24.231a11.3,11.3,0,0,0-2.714-.328.879.879,0,0,0,0,1.758,9.375,9.375,0,0,1,5.782,1.97.879.879,0,0,0,1.4-.541ZM111.193,1.758a.877.877,0,1,1-.879.877A.879.879,0,0,1,111.193,1.758ZM100.215,4.712a.877.877,0,1,1-.879.877A.879.879,0,0,1,100.215,4.712ZM92.133,1.758a.877.877,0,1,1-.879.877A.879.879,0,0,1,92.133,1.758ZM84.051,4.712a.877.877,0,1,1-.879.877A.879.879,0,0,1,84.051,4.712ZM72.139,2.634a.879.879,0,1,1,.879.877A.879.879,0,0,1,72.139,2.634Z" transform="translate(-62.133)"/><path class="b" d="M409.292,220.1a8.479,8.479,0,0,0-1.89.212,16.684,16.684,0,0,0-.42-3.626.879.879,0,0,0-1.713.393,14.925,14.925,0,0,1,.376,3.335c0,.343-.012.694-.036,1.041a.879.879,0,0,0,1.2.877,6.7,6.7,0,1,1,2.481,12.93h-2.882a.879.879,0,0,0,0,1.758h2.882a8.46,8.46,0,1,0,0-16.919Z" transform="translate(-357.756 -190.694)"/><path class="b" d="M287.539,380.343h-8.145a.879.879,0,0,0,0,1.758h3.686v8.552a2.637,2.637,0,1,0,1.758,0V382.1h2.7a.879.879,0,0,0,0-1.758Zm-3.581,13.671a.877.877,0,1,1,.879-.877A.879.879,0,0,1,283.959,394.014Z" transform="translate(-245.877 -335.772)"/><path class="b" d="M159.05,380.343h-8a.879.879,0,1,0,0,1.758h2.562v8.552a2.637,2.637,0,1,0,1.758,0V382.1h3.683a.879.879,0,0,0,0-1.758Zm-4.562,13.671a.877.877,0,1,1,.879-.877A.879.879,0,0,1,154.488,394.014Z" transform="translate(-132.57 -335.772)"/><path class="b" d="M90.663,315.637a2.634,2.634,0,0,0-.879,5.118v12.013L86.061,337.2a.879.879,0,1,0,1.346,1.13l3.929-4.681a.879.879,0,0,0,.206-.565V320.755a2.634,2.634,0,0,0-.879-5.118Zm0,3.511a.877.877,0,1,1,.879-.877A.879.879,0,0,1,90.663,319.148Z" transform="translate(-75.795 -278.648)"/><path class="b" d="M236.137,315.637a2.634,2.634,0,0,0-.879,5.118v17.014a.879.879,0,0,0,1.758,0V320.755a2.634,2.634,0,0,0-.879-5.118Zm0,3.511a.877.877,0,1,1,.879-.877A.879.879,0,0,1,236.137,319.148Z" transform="translate(-206.137 -278.648)"/><path class="b" d="M366.135,332.768V320.755a2.637,2.637,0,1,0-1.758,0v12.333a.879.879,0,0,0,.206.565l3.929,4.681a.879.879,0,0,0,1.346-1.13Zm-.879-15.373a.877.877,0,1,1-.879.877A.879.879,0,0,1,365.256,317.395Z" transform="translate(-320.125 -278.648)"/><path class="c" d="M6578.379-12316.361a11.917,11.917,0,0,1,3.919-1.757,11.215,11.215,0,0,1,4.438.174" transform="translate(-6573 12343)"/><path class="c" d="M6578.67-12316.345a11.4,11.4,0,0,1,3.795-1.663,46.588,46.588,0,0,1,5.3-.641" transform="translate(-12269.788 -6556.887) rotate(90)"/></g></g></svg>