<svg xmlns="http://www.w3.org/2000/svg" width="23.991" height="14.998" viewBox="0 0 23.991 14.998"><defs><style>.w{fill:#fff;}</style></defs><path class="w" d="M6.938,4.5a8.917,8.917,0,0,1,1.92.188,4.319,4.319,0,0,1,1.485.61,2.811,2.811,0,0,1,.96,1.12,4,4,0,0,1,.34,1.73,3.254,3.254,0,0,1-.507,1.86,3.663,3.663,0,0,1-1.5,1.22,3.524,3.524,0,0,1,2.022,1.37,4.1,4.1,0,0,1,.665,2.36,4.134,4.134,0,0,1-.41,1.93,3.7,3.7,0,0,1-1.16,1.35,5.09,5.09,0,0,1-1.67.767,7.316,7.316,0,0,1-1.91.254H0V4.51H6.938V4.5Zm10,12.162a2.609,2.609,0,0,0,1.894.643,2.612,2.612,0,0,0,1.53-.447,1.841,1.841,0,0,0,.78-.94h2.588a4.868,4.868,0,0,1-1.9,2.75,5.486,5.486,0,0,1-3.08.83,6.129,6.129,0,0,1-2.272-.4,4.948,4.948,0,0,1-1.72-1.14,5.1,5.1,0,0,1-1.077-1.77,6.561,6.561,0,0,1-.373-2.27,6.082,6.082,0,0,1,.4-2.23,5.191,5.191,0,0,1,2.856-2.984,5.358,5.358,0,0,1,2.22-.433,5.041,5.041,0,0,1,2.38.523,4.8,4.8,0,0,1,1.66,1.4,5.569,5.569,0,0,1,.94,2.02,8.069,8.069,0,0,1,.21,2.38h-7.69A3.031,3.031,0,0,0,17,16.662l-.08.03Zm-10.24.05a4.21,4.21,0,0,0,.906-.093,2.319,2.319,0,0,0,.763-.3,1.482,1.482,0,0,0,.52-.583,2.05,2.05,0,0,0,.19-.96,1.941,1.941,0,0,0-.64-1.62,2.754,2.754,0,0,0-1.69-.48H3.24v4.05H6.7V16.7Zm13.607-5.65a2.2,2.2,0,0,0-1.657-.592,2.48,2.48,0,0,0-1.166.238,2.155,2.155,0,0,0-.74.59,2.082,2.082,0,0,0-.392.75,3.505,3.505,0,0,0-.135.71h4.762a2.857,2.857,0,0,0-.68-1.69v.01ZM6.52,10.45a2.329,2.329,0,0,0,1.425-.412A1.539,1.539,0,0,0,8.5,8.7a1.884,1.884,0,0,0-.18-.846,1.462,1.462,0,0,0-.5-.512,2.117,2.117,0,0,0-.72-.257,4.426,4.426,0,0,0-.84-.074H3.23v3.44H6.52Zm9.1-4.958h5.968V6.946H15.618V5.49Z" transform="translate(0 -4.503)"/></svg>