<svg xmlns="http://www.w3.org/2000/svg" width="50" height="50" viewBox="0 0 50 50"><defs><style>.a{fill:#7777eb;opacity:0.1;}.b{fill:#fff;}</style></defs><g transform="translate(-614 -3756)"><circle class="a" cx="25" cy="25" r="25" transform="translate(614 3756)"/><path class="b" d="M10.5,17.527l-2.8,1.2,2.594,1.109L13.3,18.731l-2.8-1.2Zm-4.211,1.5-.094,5.415,4.1,1.8V20.629l-4-1.6Zm8.423,0-3.7,1.41v5.3l3.7-1.5V19.031ZM19.128,2.186l-2.82,1.2L18.921,4.5,21.93,3.389l-2.8-1.2Zm-3.911,1.6V9.2l3.5,1.016.113-4.926-3.61-1.5Zm7.821.3L19.73,5.5v5.321l3.309-1.5V4.085ZM5.883,9.807l-2.8,1.2,2.594,1.109L8.684,11.01l-2.8-1.2Zm-4.211,1.5-.094,5.415,4.1,1.8V12.909Zm8.423,0-3.7,1.41v5.3l3.7-1.5Zm4.813-1.7-2.8,1.2L14.7,11.92l3.008-1.109-2.8-1.2Zm-4.211,1.5L10.6,16.526l4.1,1.8V12.71Zm8.423,0-3.7,1.41v5.3l3.7-1.5V11.111Zm8.824-8.925-2.8,1.2L27.736,4.5l3.008-1.109-2.8-1.2Zm-4.211,1.5L23.638,9.1l4.1,1.8V5.289l-4-1.6Zm8.423,0L28.45,5.1v5.3l3.7-1.5V3.69Z" transform="translate(622.422 3766.814)"/></g></svg>