<svg xmlns="http://www.w3.org/2000/svg" width="50" height="50" viewBox="0 0 50 50"><defs><style>.a{fill:#7777eb;opacity:0.1;}.b{fill:#fff;}</style></defs><g transform="translate(-677 -3756)"><circle class="a" cx="25" cy="25" r="25" transform="translate(677 3756)"/><path class="b" d="M2.873,24H1.9c-.025-.066-.049-.131-.07-.2a15.42,15.42,0,0,1-.692-2.154c-.146-.984.78-1.039,1.374-1.465.915-.66,1.635-1.025,2.627-1.621a6,6,0,0,0,1.281-.828c.2-.408-.345-.982-.49-1.3A3.978,3.978,0,0,1,5.552,15a2.8,2.8,0,0,1-1.844-1.185,4.563,4.563,0,0,1-.525-3.936c.045-.1.254-.305.285-.463a5.089,5.089,0,0,0-.121-1.049c-.06-1.692.285-3.15,1.426-3.66.463-1.84,2.113-2.453,3.673-3.367a11.5,11.5,0,0,1,1.89-.807c2.372-.877,6.028-.712,7.995.783a10.794,10.794,0,0,1,2.656,2.939c1.262,2.555,1.17,6.826.287,9.935a9.964,9.964,0,0,1-.533,1.533c-.168.349-.689,1.05-.625,1.36s1.189,1.17,1.432,1.4c.434.422,1.26.975,1.324,1.5a5.37,5.37,0,0,1-.41,1.875c-.217.721-.436,1.441-.654,2.131H2.871l0,.016Zm11.1-3.541a7.756,7.756,0,0,0-2.065-.756c-.869-.164-.779,1.188-.75,1.994a6.27,6.27,0,0,0,.511,1.744c.075.2.089.41.255.449a4.224,4.224,0,0,0,1.575-.479,19.129,19.129,0,0,0,1.574-1.189c.016-.17.016-.34.031-.508a2.648,2.648,0,0,0-1.1-.277,10.019,10.019,0,0,0,1.035-.332l.016-.193a2.052,2.052,0,0,1-1.021-.436l-.065-.017ZM21.432,23.4a17.781,17.781,0,0,0,.465-1.752,5.219,5.219,0,0,0,.178-1.176c-.059-.459-.684-.8-1-1.086-.584-.525-.951-.975-1.561-1.469-.248.375-.779.615-.982.914,1.447-.689,1.709,2.625,1.141,3.689.09.33.391.451.514.736l-.086.166h1.289a.058.058,0,0,1,.045.014v-.036ZM14.8,23.383c-.049-.074-.1-.135-.15-.209l-.3.195H14.8v.014Zm2.771,0c.008-.209.018-.4.029-.6-.529.029-.824-.48-1.195-.527-.324-.045-.6.361-1.02.195a4.185,4.185,0,0,1-.285.316,4.665,4.665,0,0,1,.424.584h.816a.3.3,0,0,1,.3-.285.273.273,0,0,1,.285.27h.66l-.013.045Zm2.116,0A1.312,1.312,0,0,0,18,22.828l-.031.541h1.711Zm-8.51,0-.1-.344a9.438,9.438,0,0,1-.4-1.68A17.96,17.96,0,0,1,8.01,19.933c-.15-.1-1.109-1.35-1.23-1.305a20.227,20.227,0,0,0-4.814,2.984c.256.557.48,1.141.69,1.74h8.505l.013.031Zm8.265-2.113c-.029-.512-.164-1.561-.48-1.74-.66-.391-1.846.779-2.34.943a1.823,1.823,0,0,1,.15.48,1.414,1.414,0,0,1,.9.092,1.907,1.907,0,0,0-.824.164c-.074.195.016.48-.029.764a10,10,0,0,0,2.385.332,1.9,1.9,0,0,0,.211-1.082l.029.047Zm-4.08-.36a2.73,2.73,0,0,0,.119.943c1.26.391,1.035-1.74-.135-.959l.016.016Zm-6.6-1.41c-.45.457,1.271,1.082,1.814,1.115,0-.291.165-.564.135-.771A5.9,5.9,0,0,1,8.765,19.5l0,0Zm5.565.215c0,.043-.061.029-.068.064a2.328,2.328,0,0,0,1.8.51c.354-.262.67-.563,1.043-.807-.855.074-1.932.607-2.775.229Zm3.42-17.727C16.141,1.082,13.4.4,11.67,1.257c-1.38.692-3.27,1.841-3.9,3.292.6,1.4-.166,2.686-.226,4.109-.018.758.36,1.42.391,2.243-.2.338-.825.38-1.26.356-.146-.729-.4-1.549-1.155-1.631A1.746,1.746,0,0,0,3.63,11.31c-.06,1.079.834,2.864,2.086,2.745.488-.046.608-.541,1.139-.541.285.57-.445.75-.523,1.155a3.546,3.546,0,0,0,.1.7,9.868,9.868,0,0,0,1.245,2.88c.635.9,1.884,1.051,3.229,1.141.24-.525,1.125-.48,1.706-.346a5.809,5.809,0,0,1-1.875-1.529A3.85,3.85,0,0,1,9.48,15.24c1.155,1.6,2.1,3,4.2,3.7,1.59.525,3.449-.254,4.664-1.109a5.453,5.453,0,0,0,1.17-1.439A12.234,12.234,0,0,0,21.361,9a8.148,8.148,0,0,0-.436-2.955c-.389-.781-1.695-1.471-2.475-.781C18.3,4.5,19.079,4.036,20,4.306a8.62,8.62,0,0,0-2.266-2.385l.017.067ZM13.582,14.9c.615,1.544,2.725,1.363,4.506,1.323a.98.98,0,0,1-.465.515,4.528,4.528,0,0,1-2.938-.012,4.063,4.063,0,0,1-1.1-1.227c-.137-.172-.8-.608-.012-.609l.011.01Zm.164-.871a8.826,8.826,0,0,0,3.732.48,4.144,4.144,0,0,1,.068.914c-1.551.08-3.387-.3-3.8-1.395h-.005Zm6.676-.585a2.941,2.941,0,0,1-2.539,1.928,3.982,3.982,0,0,1,0-.9,7.389,7.389,0,0,0,2.543-1.017l0-.007Zm-.649-.667a5.617,5.617,0,0,1-3.824,1.21,1.142,1.142,0,0,1-.141-1.458c.182.313.061.885.57.969.945.166,2.039-.578,2.73-.84.42-.712-.045-.975-.42-1.432-.781-.931-1.83-2.1-1.8-3.51.314-.225.346.345.391.449a12.753,12.753,0,0,0,2.174,3c.18.211.48.391.51.525.092.389-.254.854-.209,1.109l.02-.022ZM6.333,12.1c-.314-.184-.393-.99-.768-1.01-.535-.03-.438,1.049-.436,1.679a1.948,1.948,0,0,1-.164-1.89c-.308-.15-.445.165-.618.285.22-1.59,2.34-.734,1.989.96l0-.024Zm-1.619-6.1c-.685.756-.54,2.174-.459,3.188a1.851,1.851,0,0,1,2.883,1.395c.595-.016.223-.744.115-1.215-.353-1.529.592-3.188.041-4.59A3.818,3.818,0,0,0,4.716,5.986l0,.008Zm9.12,1.113a5.908,5.908,0,0,0,.84,1.57c.195.191.574.424.387.951a1.249,1.249,0,0,1-.551.45c-.674.195-2.254.03-1.721-.81.563.015,1.314.359,1.732-.045-.314-.525-.885-1.53-.674-2.13l-.013.014Zm6.2-.013H20.1a16.026,16.026,0,0,0,1,1.965c-.27.629-2.053,1.19-2.023.057.389-.17,1.049-.035,1.4-.25A3.971,3.971,0,0,1,20.043,7.1h-.01ZM13.1,5.477c-1.422-.33-2.131.592-2.56,1.553-.384-.094-.231-.615-.135-.883a2.413,2.413,0,0,1,2.119-1.506c.359.057.848.386.576.834ZM9.643,1.592c-1.56.44-3.56,1.574-4.2,2.974.495-.07.84-.321,1.33-.351a3.147,3.147,0,0,0,.641.015c.424-.1.78-1.065,1.1-1.409s.685-.5.941-.811c.166-.09.408-.074.42-.33-.074-.075-.15-.135-.233-.105v.017Z" transform="translate(689.879 3769.001)"/></g></svg>