<svg xmlns="http://www.w3.org/2000/svg" width="50" height="50" viewBox="0 0 50 50"><defs><style>.f{fill:#7777eb;opacity:0.1;}.b{fill:#fff;}</style></defs><g transform="translate(-722 -3901)"><circle class="f" cx="25" cy="25" r="25" transform="translate(722 3901)"/><path class="b" d="M16.262,13.293a3.118,3.118,0,0,0-2.346,1.066l-1.47-1.041a3.967,3.967,0,0,0,.009-2.726l1.467-1.03a3.114,3.114,0,1,0-.658-1.18L11.8,9.412a4.044,4.044,0,0,0-2.5-1.453V6.19a3.132,3.132,0,1,0-1.343-.014V7.968a4.036,4.036,0,0,0,.029,7.957v1.892a3.128,3.128,0,1,0,1.342,0V15.925a4.042,4.042,0,0,0,2.46-1.431l1.48,1.048a3.128,3.128,0,1,0,3-2.249Zm0-7.316a1.517,1.517,0,1,1-1.517,1.517A1.519,1.519,0,0,1,16.262,5.977ZM7.133,3.129A1.517,1.517,0,1,1,8.65,4.646,1.519,1.519,0,0,1,7.133,3.129Zm3.034,17.742A1.517,1.517,0,1,1,8.65,19.354,1.519,1.519,0,0,1,10.167,20.871ZM8.65,14.06a2.116,2.116,0,1,1,2.116-2.116A2.118,2.118,0,0,1,8.65,14.06Zm7.612,3.879a1.517,1.517,0,1,1,1.517-1.517A1.519,1.519,0,0,1,16.262,17.939Z" transform="translate(735.391 3914)"/></g></svg>