<svg xmlns="http://www.w3.org/2000/svg" width="50" height="50" viewBox="0 0 50 50"><defs><style>.f{fill:#7777eb;opacity:0.1;}.b{fill:#fff;}</style></defs><g transform="translate(-619 -3802)"><circle class="f" cx="25" cy="25" r="25" transform="translate(619 3802)"/><path class="b" d="M23.644,5.43a.364.364,0,0,1,.014.1v5.15a.376.376,0,0,1-.189.326l-4.323,2.49v4.934a.378.378,0,0,1-.188.326L9.931,23.95a.316.316,0,0,1-.066.027c-.008,0-.016.008-.024.01a.348.348,0,0,1-.192,0,.126.126,0,0,1-.029-.012.486.486,0,0,1-.063-.025l-9.023-5.2a.376.376,0,0,1-.189-.326V2.974a.363.363,0,0,1,.014-.1.309.309,0,0,1,.014-.032A.369.369,0,0,1,.4,2.786a.123.123,0,0,1,.023-.033c.012-.016.021-.031.033-.045s.025-.018.037-.027.027-.024.041-.034h0L5.044.05a.375.375,0,0,1,.375,0l4.512,2.6h0a.423.423,0,0,1,.041.033l.037.027a.522.522,0,0,1,.033.045.191.191,0,0,1,.025.033.323.323,0,0,1,.024.058c0,.011.011.021.013.032a.318.318,0,0,1,.014.1v9.652l3.76-2.164V5.527a.363.363,0,0,1,.014-.1c0-.011.009-.021.013-.032a.487.487,0,0,1,.024-.059c.007-.012.018-.021.025-.033s.021-.03.033-.043a.225.225,0,0,1,.037-.028.412.412,0,0,1,.041-.032h0l4.513-2.6a.375.375,0,0,1,.375,0l4.513,2.6c.016.01.027.021.042.031s.025.018.036.028.022.029.034.044a.229.229,0,0,1,.024.033.293.293,0,0,1,.024.059A.161.161,0,0,1,23.644,5.43Zm-.74,5.032V6.179l-1.578.908L19.144,8.343v4.283l3.76-2.164Zm-4.511,7.75V13.925L16.247,15.15l-6.127,3.5v4.326l8.273-4.762ZM1.1,3.624V18.212l8.273,4.762V18.648L5.046,16.2l0,0h0c-.014-.01-.025-.021-.04-.031s-.024-.018-.035-.027v0a.231.231,0,0,1-.031-.039.2.2,0,0,1-.028-.037h0a.511.511,0,0,1-.02-.047.393.393,0,0,1-.018-.043.489.489,0,0,1-.008-.057.29.29,0,0,1-.006-.041V5.789L2.673,4.532,1.1,3.624ZM5.231.81,1.471,2.974l3.76,2.164L8.989,2.974ZM7.187,14.315l2.182-1.256V3.624l-1.58.909L5.607,5.789v9.435l1.58-.909ZM18.769,3.364l-3.76,2.164,3.76,2.163,3.759-2.164L18.769,3.364Zm-.376,4.979L16.211,7.087l-1.579-.908v4.283l2.182,1.256,1.579.908ZM9.743,18l5.514-3.148,2.756-1.572-3.757-2.163L9.932,13.6l-3.941,2.27L9.743,18Z" transform="translate(631.654 3815)"/></g></svg>