<svg xmlns="http://www.w3.org/2000/svg" width="50" height="50" viewBox="0 0 50 50"><defs><style>.f{fill:#7777eb;opacity:0.1;}.b{fill:#fff;}</style></defs><g transform="translate(-706 -3716)"><circle class="f" cx="25" cy="25" r="25" transform="translate(706 3716)"/><path class="b" d="M21.953,6.234a1.477,1.477,0,0,0-.367.044V6.3h.019a3.019,3.019,0,0,0,.286.365c.072.143.134.286.206.428l.019-.02a.5.5,0,0,0,.187-.446c-.054-.063-.062-.126-.107-.187-.054-.09-.169-.134-.241-.2ZM7.722,23.89H6.481c-.04-2.09-.165-4.055-.361-5.9H6.109l-1.887,5.9H3.279l-1.874-5.9H1.392q-.207,2.656-.261,5.9H0q.11-3.946.549-7.4H2.088l1.787,5.439h.011l1.8-5.439H7.153q.486,4.045.573,7.4Zm5.376-5.46a16.733,16.733,0,0,1-2,5.968,2.659,2.659,0,0,1-2.118,1.436,2.089,2.089,0,0,1-.757-.185v-.661a3.434,3.434,0,0,0,.517.035,1.248,1.248,0,0,0,.866-.3,1.078,1.078,0,0,0,.395-.81,5.368,5.368,0,0,0-.308-1.263L8.337,18.431H9.555l.973,3.158a4.24,4.24,0,0,1,.274,1.5,20.415,20.415,0,0,0,1.117-4.661H13.1Zm16.494,5.46h-3.52v-7.4h1.184v6.49h2.335Zm-4.443.181-1.36-.669a2.874,2.874,0,0,0,.341-.335A4.533,4.533,0,0,0,25,20.052q0-3.673-2.884-3.675a2.744,2.744,0,0,0-2.208.933,4.543,4.543,0,0,0-.864,3,4.387,4.387,0,0,0,.768,2.864A2.631,2.631,0,0,0,21.927,24a3.4,3.4,0,0,0,.97-.131L24.67,24.9l.482-.832Zm-4.405-1.662a4.547,4.547,0,0,1-.451-2.323q0-2.8,1.7-2.8a1.43,1.43,0,0,1,1.307.669,4.527,4.527,0,0,1,.45,2.306q0,2.818-1.7,2.821a1.43,1.43,0,0,1-1.309-.669Zm-2.219-.569a1.961,1.961,0,0,1-.691,1.547,2.713,2.713,0,0,1-1.852.6,3.712,3.712,0,0,1-2.105-.689l.317-.637a3.59,3.59,0,0,0,1.592.439,1.673,1.673,0,0,0,1.048-.294,1.008,1.008,0,0,0,.4-.823c0-.442-.308-.816-.867-1.131-.519-.285-1.556-.879-1.556-.879a1.771,1.771,0,0,1-.846-1.575,1.837,1.837,0,0,1,.629-1.452,2.371,2.371,0,0,1,1.633-.555,3.359,3.359,0,0,1,1.874.549l-.285.637a3.648,3.648,0,0,0-1.424-.308,1.26,1.26,0,0,0-.875.276.916.916,0,0,0-.332.7c0,.439.313.816.891,1.137.526.288,1.588.9,1.588.9a1.742,1.742,0,0,1,.867,1.563Zm12.555-7.831a4.1,4.1,0,0,0-1.736.252c-.134.054-.348.054-.367.223.074.071.084.187.147.286a2.053,2.053,0,0,0,.463.545c.187.147.375.289.571.415.348.214.743.341,1.084.557.194.126.392.285.589.419.1.067.161.187.286.23v-.027c-.062-.08-.08-.2-.141-.286-.09-.09-.179-.17-.268-.258a4.313,4.313,0,0,0-.93-.9c-.286-.2-.913-.468-1.03-.8l-.017-.019a3.6,3.6,0,0,0,.616-.142c.3-.08.582-.063.9-.142.142-.036.285-.08.428-.126v-.08c-.161-.161-.281-.379-.447-.529a11.866,11.866,0,0,0-1.477-1.1c-.281-.179-.637-.294-.933-.447-.107-.054-.286-.08-.348-.17a3.45,3.45,0,0,1-.368-.688c-.257-.492-.509-1.037-.732-1.556a9.267,9.267,0,0,0-.455-1.021A9.016,9.016,0,0,0,23.451,5.3a4.358,4.358,0,0,0-1.146-.367c-.223-.011-.447-.027-.669-.036a3.247,3.247,0,0,1-.415-.314c-.509-.321-1.825-1.017-2.2-.1-.241.581.357,1.154.565,1.448a4.125,4.125,0,0,1,.455.669c.063.155.08.314.143.476a10.709,10.709,0,0,0,.464,1.2,4.1,4.1,0,0,0,.331.553c.072.1.2.143.223.3A2.6,2.6,0,0,0,21,9.8a3.964,3.964,0,0,0,.26,3.011c.143.222.484.715.941.526.4-.161.313-.669.428-1.117.027-.107.009-.178.064-.25v.02c.126.252.252.491.367.743a5.035,5.035,0,0,0,1.16,1.2c.214.161.384.439.652.538v-.027h-.02a1.194,1.194,0,0,0-.206-.178,4.61,4.61,0,0,1-.468-.535,11.723,11.723,0,0,1-1-1.63c-.147-.281-.27-.583-.388-.86-.054-.107-.054-.268-.143-.321a3.3,3.3,0,0,0-.428.606,5.113,5.113,0,0,0-.252,1.352c-.036.009-.019,0-.036.019-.286-.07-.384-.367-.491-.616a3.884,3.884,0,0,1-.08-2.389c.063-.187.331-.779.223-.958-.056-.17-.233-.268-.331-.405a3.316,3.316,0,0,1-.321-.571c-.214-.5-.321-1.055-.554-1.555a4.635,4.635,0,0,0-.447-.687,4.5,4.5,0,0,1-.492-.7c-.044-.1-.107-.26-.036-.367a.152.152,0,0,1,.126-.12c.118-.1.448.029.565.083a4.576,4.576,0,0,1,.886.447c.126.088.261.258.422.3h.187c.286.063.609.019.877.1a5.726,5.726,0,0,1,1.287.616,7.967,7.967,0,0,1,2.79,3.059c.107.206.154.395.252.609.187.442.419.887.609,1.314a5.827,5.827,0,0,0,.637,1.2c.134.187.672.285.913.383a6.5,6.5,0,0,1,.616.252c.308.187.608.4.9.608.147.1.593.325.62.506Z" transform="translate(715 3725.974)"/></g></svg>