<svg xmlns="http://www.w3.org/2000/svg" width="50" height="50" viewBox="0 0 50 50"><defs><style>.f{fill:#7777eb;opacity:0.1;}.b{fill:#fff;}</style></defs><g transform="translate(-526 -3784)"><circle class="f" cx="25" cy="25" r="25" transform="translate(526 3784)"/><path class="b" d="M12,24a1.841,1.841,0,0,1-.922-.247L8.14,22.016c-.438-.245-.224-.332-.08-.383a5.876,5.876,0,0,0,1.328-.6.222.222,0,0,1,.218.017l2.256,1.339a.291.291,0,0,0,.272,0l8.795-5.076a.277.277,0,0,0,.134-.238V6.921a.283.283,0,0,0-.137-.242L12.135,1.607a.278.278,0,0,0-.271,0L3.075,6.68a.284.284,0,0,0-.139.241v10.15a.269.269,0,0,0,.139.235L5.484,18.7c1.307.654,2.108-.116,2.108-.89V7.787a.253.253,0,0,1,.256-.253H8.963a.254.254,0,0,1,.255.253V17.808a2.437,2.437,0,0,1-2.6,2.745A3.761,3.761,0,0,1,4.588,20L2.28,18.675a1.856,1.856,0,0,1-.922-1.6V6.921a1.855,1.855,0,0,1,.922-1.6L11.075.236a1.925,1.925,0,0,1,1.848,0l8.794,5.082a1.856,1.856,0,0,1,.924,1.6v10.15a1.86,1.86,0,0,1-.924,1.6l-8.794,5.078A1.836,1.836,0,0,1,12,24Zm7.1-10.007c0-1.9-1.284-2.406-3.987-2.763-2.731-.361-3.009-.548-3.009-1.187,0-.528.235-1.233,2.258-1.233,1.807,0,2.473.389,2.747,1.607a.254.254,0,0,0,.247.2H18.5a.26.26,0,0,0,.186-.081.257.257,0,0,0,.067-.2c-.177-2.1-1.571-3.076-4.388-3.076-2.508,0-4,1.058-4,2.833,0,1.925,1.488,2.457,3.9,2.695,2.88.282,3.1.7,3.1,1.269,0,.983-.789,1.4-2.642,1.4-2.327,0-2.839-.584-3.011-1.742a.255.255,0,0,0-.253-.215H10.312a.252.252,0,0,0-.254.253c0,1.482.806,3.248,4.655,3.248C17.5,17.007,19.1,15.91,19.1,13.993Z" transform="translate(538.645 3797)"/></g></svg>