<svg xmlns="http://www.w3.org/2000/svg" width="27" height="27" viewBox="0 0 27 27"><defs><style>.b{fill:none;}.a{fill:#7d7d7d;}</style></defs><path class="b" d="M0,0H27V27H0Z"/><path class="a" d="M7.084,11.788a17.089,17.089,0,0,0,7.434,7.434L17,16.74a1.122,1.122,0,0,1,1.151-.271,12.868,12.868,0,0,0,4.027.643,1.131,1.131,0,0,1,1.128,1.128v3.937a1.131,1.131,0,0,1-1.128,1.128A19.176,19.176,0,0,1,3,4.128,1.131,1.131,0,0,1,4.128,3H8.076A1.131,1.131,0,0,1,9.2,4.128a12.816,12.816,0,0,0,.643,4.027,1.132,1.132,0,0,1-.282,1.151Z" transform="translate(0.347 0.347)"/></svg>