<svg xmlns="http://www.w3.org/2000/svg" width="24" height="21.354" viewBox="0 0 24 21.354">
    <path id="react" fill="#7777eb" d="M12 9.861A2.139 2.139 0 1 0 14.139 12 2.139 2.139 0 0 0 12 9.861zm-5.992 6.394l-.472-.12C2.018 15.246 0 13.737 0 12s2.018-3.25 5.536-4.139l.472-.119.133.468A23.53 23.53 0 0 0 7.5 11.784l.1.216-.1.213a23.307 23.307 0 0 0-1.363 3.578l-.133.467zm-.691-7.3C2.643 9.7 1 10.85 1 12s1.641 2.294 4.315 3.046A24.95 24.95 0 0 1 6.5 12a24.752 24.752 0 0 1-1.183-3.05zm12.675 7.3l-.133-.469a23.357 23.357 0 0 0-1.359-3.577l-.1-.213.1-.213A23.42 23.42 0 0 0 17.859 8.2l.133-.468.473.119C21.982 8.745 24 10.254 24 12s-2.018 3.25-5.535 4.139zM17.5 12a24.726 24.726 0 0 1 1.182 3.046C21.358 14.29 23 13.141 23 12s-1.643-2.3-4.317-3.05A24.788 24.788 0 0 1 17.5 12zM5.31 8.945l-.133-.467C4.188 4.992 4.488 2.494 6 1.622c1.483-.856 3.864.155 6.359 2.716l.34.349-.34.349A23.552 23.552 0 0 0 9.937 8l-.137.2-.235.02a23.657 23.657 0 0 0-3.785.61l-.472.119zm1.9-6.63a1.4 1.4 0 0 0-.7.173c-.994.573-1.17 2.565-.485 5.253a25.122 25.122 0 0 1 3.233-.5A24.847 24.847 0 0 1 11.3 4.7C9.74 3.181 8.263 2.319 7.2 2.319zm9.59 20.362c-1.425 0-3.255-1.073-5.154-3.023L11.3 19.3l.34-.349a23.53 23.53 0 0 0 2.421-2.968l.135-.193.234-.02a23.63 23.63 0 0 0 3.787-.609l.472-.119.134.468c.988 3.49.689 5.99-.823 6.859a2.38 2.38 0 0 1-1.2.308zM12.7 19.3c1.56 1.519 3.037 2.381 4.095 2.381a1.392 1.392 0 0 0 .7-.173c.994-.573 1.171-2.566.485-5.254a25.02 25.02 0 0 1-3.234.5A24.674 24.674 0 0 1 12.7 19.3zm5.99-10.355l-.472-.119a23.479 23.479 0 0 0-3.787-.61L14.2 8.2l-.138-.2a23.414 23.414 0 0 0-2.421-2.967l-.34-.349.34-.349C14.135 1.778 16.515.767 18 1.622c1.512.872 1.812 3.37.824 6.855l-.134.468zm-3.94-1.7a24.938 24.938 0 0 1 3.234.5c.686-2.688.509-4.68-.485-5.253s-2.845.3-4.8 2.208a24.849 24.849 0 0 1 2.051 2.54zM7.206 22.677A2.38 2.38 0 0 1 6 22.369C4.488 21.5 4.188 19 5.177 15.515l.132-.468.472.119a23.6 23.6 0 0 0 3.785.609l.235.02.134.193a23.6 23.6 0 0 0 2.422 2.968l.34.349-.34.349c-1.9 1.95-3.728 3.023-5.151 3.023zm-1.19-6.427c-.686 2.688-.509 4.681.485 5.254S9.344 21.2 11.3 19.3a25 25 0 0 1-2.052-2.545 24.976 24.976 0 0 1-3.233-.5zm5.984.628c-.823 0-1.669-.036-2.516-.106l-.235-.02-.135-.193q-.719-1.033-1.35-2.122T6.6 12.209L6.5 12l.1-.213q.537-1.138 1.166-2.228c.414-.716.869-1.43 1.35-2.122l.135-.193.235-.02a29.785 29.785 0 0 1 5.033 0l.234.02.134.193a30.006 30.006 0 0 1 2.517 4.35l.1.213-.1.213a29.6 29.6 0 0 1-2.517 4.35l-.134.193-.234.02c-.847.07-1.694.106-2.517.106zm-2.2-1.084a29.045 29.045 0 0 0 4.4 0 29.006 29.006 0 0 0 2.2-3.8 28.585 28.585 0 0 0-2.2-3.8 29.031 29.031 0 0 0-4.4.006A28.477 28.477 0 0 0 7.6 12a29.114 29.114 0 0 0 2.2 3.8z" transform="translate(0 -1.324)"/>
</svg>
