<svg xmlns="http://www.w3.org/2000/svg" width="50" height="50" viewBox="0 0 50 50"><defs><style>.f{fill:#7777eb;opacity:0.1;}.b{fill:#fff;}</style></defs><g transform="translate(-583 -3901)"><circle class="f" cx="25" cy="25" r="25" transform="translate(583 3901)"/><path class="b" d="M10.5,2.661l.54,1-1.8.644,2.409.218L12.4,5.766l.467-1.121,2.077-.208-1.61-.613.426-1.017-1.578.519Zm6.905,2.077L13.76,6.182l3.292,1.3.353-.146,3.293-1.3ZM6.9,5.05c-1.639,0-2.969.516-2.97,1.152s1.33,1.153,2.97,1.153,2.97-.516,2.97-1.153S8.534,5.05,6.9,5.05ZM24,6.8s-8.983,4.278-10.4,4.953a3.631,3.631,0,0,1-3.261.094C8.318,11.022,0,7.241,0,7.241V8.279c0,.24.332.5.966.8,1.277.613,8.34,3.677,9.45,4.206a3.16,3.16,0,0,0,3.313-.2c1.412-.738,8.049-3.9,9.326-4.57.654-.342.945-.6.945-.84Zm-10.042.6L8.39,8.26l3.884,1.61ZM24,10.637s-8.983,4.279-10.4,4.954a3.634,3.634,0,0,1-3.261.093C8.318,14.854,0,11.074,0,11.074v1.038c0,.238.332.5.966.8,1.277.612,8.34,3.676,9.45,4.2a3.16,3.16,0,0,0,3.313-.2c1.412-.737,8.049-3.9,9.326-4.57.654-.332.945-.6.945-.84Zm0,3.842L13.6,19.433a3.637,3.637,0,0,1-3.261.094C8.318,18.7,0,14.916,0,14.916v1.038c0,.239.332.5.966.8,1.277.613,8.34,3.676,9.45,4.206a3.158,3.158,0,0,0,3.313-.2c1.412-.737,8.049-3.9,9.326-4.569.654-.343.945-.613.945-.841Z" transform="translate(596 3914.339)"/></g></svg>