<svg xmlns="http://www.w3.org/2000/svg" width="24.051" height="24.68" viewBox="0 0 24.051 24.68"><defs><style>.a{fill:#7777eb;}</style></defs><path class="a" d="M8.523,2.1a7.737,7.737,0,0,0,.036,13.045A6.523,6.523,0,1,1,8.523,2.1M22.244,3.877l1.7,1.7L5.475,24.039l-1.7-1.7L22.244,3.877M14.915,6.759l-1.755-1.1L11.452,6.842l.5-2.016L10.3,3.569l2.075-.142.688-1.957L13.86,3.4l2.052.036-1.6,1.34.6,1.981M11,11.041l-1.376-.866L8.3,11.1l.4-1.565L7.408,8.55l1.613-.107.534-1.53.6,1.506,1.613.036L10.527,9.487,11,11.041m11.16,4.7a6.523,6.523,0,0,1-10.389,5.254l9.12-9.12a6.508,6.508,0,0,1,1.269,3.866m-5.218,7.8,3.285-1.364-.285,3.973-3-2.609m5.135-3.2,1.364-3.285,2.609,3.012-3.973.273m1.364-5.882-1.352-3.3,3.961.285-2.609,3.012M11.049,22.177l3.285,1.364-3,2.6Z" transform="translate(-2 -1.47)"/></svg>