<svg xmlns="http://www.w3.org/2000/svg" width="177.737" height="28.453" viewBox="0 0 177.737 28.453"><defs><style>.alogo{fill:#0079c9;fill-rule:evenodd;}</style></defs><path class="alogo" d="M50.769,8.1V7.067A1.024,1.024,0,0,1,51.8,6.022H64.649a1.024,1.024,0,0,1,1.034,1.045V8.3a2.055,2.055,0,0,1-.192.869,2.327,2.327,0,0,1-.357.594l-.484.495-8.656,8.425h8.766a1,1,0,0,1,.742.3,1.024,1.024,0,0,1,.291.748V20.76a1,1,0,0,1-1.034,1.034H51.99a1.016,1.016,0,0,1-.731-.291.986.986,0,0,1-.3-.742V19.539a3,3,0,0,1,1.034-2.09l8.381-8.315H51.8a1.016,1.016,0,0,1-.731-.291A.986.986,0,0,1,50.769,8.1ZM67.927,20.738V7.045a.97.97,0,0,1,.308-.726,1.024,1.024,0,0,1,.737-.3H81.653a.987.987,0,0,1,.731.308,1.015,1.015,0,0,1,.3.737V8.1a1.033,1.033,0,0,1-1.034,1.034h-9.58v3.2h8.249a1.033,1.033,0,0,1,1.034,1.034V14.4a1.033,1.033,0,0,1-1.034,1.034H72.073v3.245h9.558a.975.975,0,0,1,.715.3.987.987,0,0,1,.3.726V20.76a.988.988,0,0,1-.308.731,1.015,1.015,0,0,1-.737.3H68.972a1.042,1.042,0,0,1-1.045-1.056ZM83.358,8.1V7.067A1.015,1.015,0,0,1,84.4,6.022H98.36A1.015,1.015,0,0,1,99.4,7.067V8.1a1,1,0,0,1-.3.742,1.024,1.024,0,0,1-.748.291H93.455V20.782a.961.961,0,0,1-.3.72,1.016,1.016,0,0,1-.731.291H90.342a1.016,1.016,0,0,1-.731-.291.961.961,0,0,1-.3-.72V9.135H84.4a1.024,1.024,0,0,1-.748-.291A1,1,0,0,1,83.358,8.1ZM99.9,6.946a.781.781,0,0,1-.055-.3.655.655,0,0,1,.192-.4.717.717,0,0,1,.577-.225h2.409a1.224,1.224,0,0,1,.792.3,1.625,1.625,0,0,1,.517.748l2.9,8.711,2.684-8.711a1.289,1.289,0,0,1,1.309-1.045h2.024a1.289,1.289,0,0,1,1.309,1.045l2.684,8.711,2.9-8.711a1.625,1.625,0,0,1,.517-.748,1.224,1.224,0,0,1,.792-.3h2.409a.7.7,0,0,1,.566.225.655.655,0,0,1,.192.4.955.955,0,0,1-.044.3l-4.905,13.726a1.554,1.554,0,0,1-1.584,1.122H116.5a1.493,1.493,0,0,1-1.573-1.122L112.24,12.2l-2.684,8.469a1.5,1.5,0,0,1-1.573,1.122h-1.606a1.547,1.547,0,0,1-1.573-1.122Zm26.529,13.792V7.045a.97.97,0,0,1,.308-.726,1.024,1.024,0,0,1,.737-.3h12.681a.987.987,0,0,1,.731.308,1.015,1.015,0,0,1,.3.737V8.1a1.033,1.033,0,0,1-1.034,1.034h-9.58v3.2h8.249a1.033,1.033,0,0,1,1.034,1.034V14.4a1.033,1.033,0,0,1-1.034,1.034h-8.249v3.245h9.558a.975.975,0,0,1,.715.3.987.987,0,0,1,.3.726V20.76a.988.988,0,0,1-.308.731,1.015,1.015,0,0,1-.737.3H127.473a1.042,1.042,0,0,1-1.045-1.056Zm33.161.583q0,.473-.561.473h-2.64a1.807,1.807,0,0,1-.918-.3,2.224,2.224,0,0,1-.764-.731l-1.87-2.926a3.312,3.312,0,0,0-2.794-1.8h-2.684V20.76a1.033,1.033,0,0,1-1.034,1.034h-2.068a1.015,1.015,0,0,1-.737-.3.988.988,0,0,1-.308-.731V7.067a1.024,1.024,0,0,1,.3-.737.97.97,0,0,1,.726-.308h9.074a6.2,6.2,0,0,1,4.13,1.353,4.521,4.521,0,0,1,1.611,3.652q0,3.2-4.146,4.014a3.224,3.224,0,0,1,1.221.83,11.968,11.968,0,0,1,1.287,1.71l2,3.179A1.151,1.151,0,0,1,159.589,21.321Zm-12.23-8.4h4.685a4.251,4.251,0,0,0,2-.451,1.513,1.513,0,0,0,.863-1.441,1.513,1.513,0,0,0-.863-1.441,4.251,4.251,0,0,0-2-.451h-4.685Zm30.378,8.392q0,.484-.572.484h-2.519a1.793,1.793,0,0,1-.924-.3,2.346,2.346,0,0,1-.77-.731l-1.936-3.069A6.607,6.607,0,0,0,169.62,16a2.617,2.617,0,0,0-1.694-.566h-2.365v5.345a.961.961,0,0,1-.3.72,1.016,1.016,0,0,1-.731.291H162.46a1,1,0,0,1-.737-.313,1.024,1.024,0,0,1-.308-.742V7.067a1.042,1.042,0,0,1,.308-.748A.989.989,0,0,1,162.46,6h2.068a.971.971,0,0,1,.731.319,1.052,1.052,0,0,1,.3.748v5.268h2.365a2.827,2.827,0,0,0,1.7-.528,5.2,5.2,0,0,0,1.391-1.7l1.7-3.036A1.79,1.79,0,0,1,174.305,6h2.541q.528,0,.528.462a1.342,1.342,0,0,1-.187.6L174.8,11.389a6.368,6.368,0,0,1-1.16,1.562,3.61,3.61,0,0,1-1.677.869,3.113,3.113,0,0,1,1.49.913,10.154,10.154,0,0,1,1.347,1.65l2.75,4.377A1.136,1.136,0,0,1,177.737,21.31Z"/><path class="alogo" d="M14.226,7.5l.449.015Q14.453,7.5,14.226,7.5Zm.449.015a13,13,0,0,0,.77,14.565,13.1,13.1,0,0,0,1.178,1.351q.15.15.305.3A13.008,13.008,0,1,0,21.449,1.967a14.261,14.261,0,0,1,2,1.429,11.087,11.087,0,1,1-5.466,18.669q-.278-.278-.537-.576a11.063,11.063,0,0,1-2.71-7.262A11.033,11.033,0,0,1,16.68,7.958,6.7,6.7,0,0,0,14.675,7.512Zm5.35-6.28a14.226,14.226,0,1,1,0,25.99,14.226,14.226,0,1,1,0-25.99ZM18.6,26.485a14.292,14.292,0,0,1-2-1.429A11.088,11.088,0,1,1,22.065,6.388q.278.278.537.576a11.088,11.088,0,0,1,.769,13.53,6.691,6.691,0,0,0,2.005.447,13,13,0,0,0-.77-14.565,13.1,13.1,0,0,0-1.178-1.351q-.15-.15-.305-.3A13.008,13.008,0,1,0,18.6,26.485Zm-3.1-2.47a14.285,14.285,0,0,1-1.483-1.849,7.943,7.943,0,0,1,0-15.881c.069,0,.139,0,.208,0a8,8,0,0,1,1.219.093,7.9,7.9,0,0,1,3.1,1.182,7.983,7.983,0,0,1,1.3,1.051q.092.092.182.188a7.945,7.945,0,0,1,.768,9.9q.132.148.272.288a6.759,6.759,0,0,0,1.208.96,9.864,9.864,0,0,0-.769-12.386q-.146-.16-.3-.312a9.89,9.89,0,0,0-2.277-1.7A9.809,9.809,0,0,0,15.5,4.437a9.95,9.95,0,0,0-1.275-.082,9.871,9.871,0,1,0,0,19.742A9.956,9.956,0,0,0,15.5,24.016Zm-2.252-3.131a14.25,14.25,0,0,1,0-13.318,6.731,6.731,0,0,0,0,13.318Zm13.552,0a6.731,6.731,0,0,0,0-13.318,14.25,14.25,0,0,1,0,13.318Zm-.769-14.6a7.943,7.943,0,0,1,0,15.881c-.069,0-.139,0-.208,0a8.025,8.025,0,0,1-1.219-.093,7.9,7.9,0,0,1-3.1-1.183,7.979,7.979,0,0,1-1.3-1.051q-.093-.092-.182-.188a7.945,7.945,0,0,1-.768-9.9q-.132-.148-.272-.288a6.757,6.757,0,0,0-1.208-.96,9.864,9.864,0,0,0,.768,12.386q.146.16.3.312a9.9,9.9,0,0,0,2.277,1.7,9.807,9.807,0,0,0,3.429,1.109,9.95,9.95,0,0,0,1.275.082,9.871,9.871,0,1,0,0-19.742,9.95,9.95,0,0,0-1.274.082A14.28,14.28,0,0,1,26.032,6.286Zm-6.007,4.524a6.736,6.736,0,0,0,0,6.834,6.738,6.738,0,0,0,0-6.834Z"/></svg>